<svg width="267.28" height="321.71" xmlns="http://www.w3.org/2000/svg" data-name="Capa 1">

 <title>SLOth</title>
 <g>
  <title>Layer 1</title>
  <path id="svg_1" fill="#ffffff" d="m5,194.22c0,1 0.1,2 0.16,3l0.06,1c0.19,2.69 0.47,5.36 0.82,8c0,0.23 0.07,0.47 0.1,0.7c0.16,1.17 0.34,2.33 0.53,3.49l0.09,0.53c0.47,2.73 1,5.42 1.66,8.09l0.06,0.26c0.31,1.28 0.64,2.56 1,3.82l0,0.13c0.71,-34.17 20.31,-63.52 48.4,-77.25l2.08,-1a19.28,19.28 0 0 1 7.18,-1.38a19.45,19.45 0 0 1 14.39,6.36a20.92,20.92 0 0 1 5.51,13.05c0,0.42 0,0.84 0,1.27a21.72,21.72 0 0 1 -0.58,5a21,21 0 0 1 -2.16,5.71a20.42,20.42 0 0 1 -2.76,3.74a20,20 0 0 1 -7.43,5c-32.61,15.89 -42.57,44 -43.57,62.34a74.09,74.09 0 0 0 4.46,25.64l0.26,0.3q3.08,3.64 6.41,7.06l0.45,0.46q1.62,1.65 3.32,3.24l0.47,0.44q3.48,3.25 7.21,6.24c0.16,0.14 0.33,0.27 0.5,0.4c1.21,1 2.43,1.91 3.68,2.82l0.54,0.4q3.84,2.81 7.9,5.34l0.57,0.35c1.31,0.81 2.64,1.59 4,2.36l0.61,0.34q4.17,2.32 8.52,4.36l0.62,0.29q2.12,1 4.27,1.86l0.69,0.28q4.44,1.82 9,3.31l0.68,0.22c1.49,0.47 3,0.91 4.5,1.33l0.75,0.2c1.56,0.43 3.13,0.83 4.72,1.19l0,0a129.6,129.6 0 0 0 50.85,1.42l0,0l1.33,-0.24l2.45,-0.47l1.6,-0.34c0.8,-0.17 1.59,-0.35 2.39,-0.54l1.34,-0.31c1.12,-0.28 2.24,-0.58 3.35,-0.88l1.51,-0.44l2.2,-0.65l1.49,-0.47c1.1,-0.35 2.19,-0.72 3.27,-1.1l1.26,-0.46l2.28,-0.85l1.47,-0.58l2.29,-0.94l1.18,-0.5q1.57,-0.69 3.12,-1.41l1.37,-0.66c0.7,-0.33 1.39,-0.68 2.08,-1l1.32,-0.67q1.53,-0.79 3,-1.62l1.12,-0.64c0.71,-0.4 1.42,-0.81 2.12,-1.23c0.44,-0.25 0.87,-0.51 1.3,-0.77c0.74,-0.45 1.47,-0.91 2.2,-1.37l1,-0.62c0.95,-0.62 1.89,-1.26 2.83,-1.9l1.18,-0.82l1.95,-1.4l1.11,-0.82c0.92,-0.69 1.84,-1.39 2.74,-2.1l0.94,-0.76l2,-1.61l1.09,-0.92c0.7,-0.6 1.39,-1.21 2.08,-1.82l0.75,-0.68c0.85,-0.77 1.68,-1.55 2.5,-2.34l1,-0.94c0.6,-0.59 1.2,-1.18 1.78,-1.78c0.3,-0.3 0.6,-0.6 0.89,-0.91c0.81,-0.84 1.61,-1.69 2.4,-2.56c0.26,-0.27 0.5,-0.56 0.75,-0.84c0.59,-0.65 1.17,-1.31 1.75,-2l0.86,-1c0.65,-0.76 1.28,-1.53 1.9,-2.3l0.53,-0.66c0.6,-0.75 1.19,-1.52 1.77,-2.29a80.06,80.06 0 0 0 2.63,-20.58c-0.64,-10.36 -10.12,-41.94 -43.57,-62.34a20.27,20.27 0 0 1 -10.2,-8.77a21,21 0 0 1 -2.25,-5.63a21.72,21.72 0 0 1 -0.59,-5c0,-0.43 0,-0.85 0,-1.27a21.13,21.13 0 0 1 0.92,-5.07a20.92,20.92 0 0 1 4.6,-8a19.45,19.45 0 0 1 14.39,-6.36a19.32,19.32 0 0 1 7.18,1.38l2.07,1c26.09,12.75 44.85,39 48,70q1.31,-6.15 2,-12.5l0.12,-1c0.08,-0.73 0.14,-1.47 0.2,-2.2l0.15,-1.76l0.12,-1.86c0.05,-0.77 0.08,-1.55 0.11,-2.32c0,-0.48 0,-1 0.06,-1.45c0,-1.28 0.06,-2.57 0.06,-3.86a128.66,128.66 0 0 0 -64.66,-111.7c-0.3,-0.16 -0.59,-0.33 -0.88,-0.5a70.4,70.4 0 0 1 -34.23,-73a131.74,131.74 0 0 0 -106.2,126.72a48,48 0 0 1 -13.19,-33.12l0,0a128.32,128.32 0 0 0 -38.27,91.56c0,1.33 0,2.67 0.07,4c0,0.37 0,0.75 0,1.13zm129.72,-30.13c12.94,0 23.43,6.16 23.43,13.75s-10.49,13.75 -23.43,13.75s-23.43,-6.15 -23.43,-13.75s10.53,-13.75 23.47,-13.75l-0.04,0z" class="cls-1"/>
 </g>
</svg>