<svg id="Capa_1" data-name="Capa 1" xmlns="http://www.w3.org/2000/svg" viewBox="0 0 267.28 321.71"><defs><style>.cls-1{fill:#ec604d;}</style></defs><title>SLOth</title><path class="cls-1" d="M5,194.22c0,1,.1,2,.16,3l.06,1c.19,2.69.47,5.36.82,8,0,.23.07.47.1.7.16,1.17.34,2.33.53,3.49l.09.53c.47,2.73,1,5.42,1.66,8.09l.06.26c.31,1.28.64,2.56,1,3.82l0,.13c.71-34.17,20.31-63.52,48.4-77.25l2.08-1a19.28,19.28,0,0,1,7.18-1.38,19.45,19.45,0,0,1,14.39,6.36,20.92,20.92,0,0,1,5.51,13.05c0,.42,0,.84,0,1.27a21.72,21.72,0,0,1-.58,5A21,21,0,0,1,84.3,175a20.42,20.42,0,0,1-2.76,3.74,20,20,0,0,1-7.43,5c-32.61,15.89-42.57,44-43.57,62.34A74.09,74.09,0,0,0,35,271.72l.26.3q3.08,3.64,6.41,7.06l.45.46q1.62,1.65,3.32,3.24l.47.44q3.48,3.25,7.21,6.24c.16.14.33.27.5.4,1.21,1,2.43,1.91,3.68,2.82l.54.4q3.84,2.81,7.9,5.34l.57.35c1.31.81,2.64,1.59,4,2.36l.61.34q4.17,2.32,8.52,4.36l.62.29q2.12,1,4.27,1.86l.69.28q4.44,1.82,9,3.31l.68.22c1.49.47,3,.91,4.5,1.33l.75.2c1.56.43,3.13.83,4.72,1.19h0a129.6,129.6,0,0,0,50.85,1.42h0l1.33-.24,2.45-.47,1.6-.34c.8-.17,1.59-.35,2.39-.54l1.34-.31c1.12-.28,2.24-.58,3.35-.88l1.51-.44,2.2-.65,1.49-.47c1.1-.35,2.19-.72,3.27-1.1l1.26-.46,2.28-.85,1.47-.58,2.29-.94,1.18-.5q1.57-.69,3.12-1.41l1.37-.66c.7-.33,1.39-.68,2.08-1l1.32-.67q1.53-.79,3-1.62l1.12-.64c.71-.4,1.42-.81,2.12-1.23.44-.25.87-.51,1.3-.77.74-.45,1.47-.91,2.2-1.37l1-.62c.95-.62,1.89-1.26,2.83-1.9l1.18-.82,1.95-1.4,1.11-.82c.92-.69,1.84-1.39,2.74-2.1l.94-.76,2-1.61,1.09-.92c.7-.6,1.39-1.21,2.08-1.82l.75-.68c.85-.77,1.68-1.55,2.5-2.34l1-.94c.6-.59,1.2-1.18,1.78-1.78.3-.3.6-.6.89-.91.81-.84,1.61-1.69,2.4-2.56.26-.27.5-.56.75-.84.59-.65,1.17-1.31,1.75-2l.86-1c.65-.76,1.28-1.53,1.9-2.3l.53-.66c.6-.75,1.19-1.52,1.77-2.29a80.06,80.06,0,0,0,2.63-20.58c-.64-10.36-10.12-41.94-43.57-62.34a20.27,20.27,0,0,1-10.2-8.77,21,21,0,0,1-2.25-5.63,21.72,21.72,0,0,1-.59-5c0-.43,0-.85,0-1.27a21.13,21.13,0,0,1,.92-5.07,20.92,20.92,0,0,1,4.6-8,19.45,19.45,0,0,1,14.39-6.36,19.32,19.32,0,0,1,7.18,1.38l2.07,1c26.09,12.75,44.85,39,48,70q1.31-6.15,2-12.5l.12-1c.08-.73.14-1.47.2-2.2l.15-1.76.12-1.86c.05-.77.08-1.55.11-2.32,0-.48,0-1,.06-1.45,0-1.28.06-2.57.06-3.86A128.66,128.66,0,0,0,197.7,77.43c-.3-.16-.59-.33-.88-.5a70.4,70.4,0,0,1-34.23-73A131.74,131.74,0,0,0,56.39,130.65,48,48,0,0,1,43.2,97.53v0A128.32,128.32,0,0,0,4.93,189.09c0,1.33,0,2.67.07,4C5,193.46,5,193.84,5,194.22Zm129.72-30.13c12.94,0,23.43,6.16,23.43,13.75s-10.49,13.75-23.43,13.75-23.43-6.15-23.43-13.75S121.82,164.09,134.76,164.09Z"/></svg>